<?xml version="1.0" encoding="utf-8"?>
<!-- Generator: Adobe Illustrator 19.0.0, SVG Export Plug-In . SVG Version: 6.00 Build 0)  -->
<svg version="1.1" id="Layer_1" xmlns="http://www.w3.org/2000/svg" xmlns:xlink="http://www.w3.org/1999/xlink" x="0px" y="0px"
	 viewBox="0 0 809 184.4" style="enable-background:new 0 0 809 184.4;" xml:space="preserve">
<style type="text/css">
	.st0{fill:#FFFFFF;}
</style>
<g id="XMLID_94_">
	<path id="XMLID_95_" class="st0" d="M58.1,64.6c0.1,0,0.1,0.2,0.1,0.3c-2.7,4.7-8.1,7.1-16.1,7.1c-3.6,0-6.7-0.4-9.2-1.3
		c-2.5-0.8-4.4-2.1-5.9-3.7c-1.5-1.6-2.6-3.6-3.2-5.9c-0.7-2.3-1-5-1-7.9c0-3.1,0.3-5.8,1-8.1c0.7-2.3,1.8-4.3,3.4-5.8
		c1.6-1.5,3.6-2.7,6.2-3.5c2.6-0.8,5.7-1.2,9.5-1.2c3.7,0,6.8,0.6,9.2,1.7c2.4,1.1,4.3,2.9,5.8,5.4c0.1,0.1,0,0.2-0.1,0.2
		c-0.8,0.4-1.6,0.8-2.5,1.1c-0.9,0.3-1.7,0.6-2.6,0.7c-0.1,0-0.1,0-0.2-0.1c-0.9-1.5-2.1-2.5-3.8-3.1c-1.6-0.6-3.7-0.9-6.2-0.9
		c-2.6,0-4.7,0.3-6.5,0.8c-1.8,0.6-3.2,1.4-4.3,2.5c-1.1,1.1-1.9,2.4-2.3,4c-0.5,1.6-0.7,3.5-0.7,5.6c0,5.1,1,8.8,3.1,11.1
		c2,2.3,5.2,3.5,9.5,3.5c2.9,0,5.2-0.3,7-1c1.8-0.6,3.1-1.7,4.1-3.1c0-0.1,0.1-0.1,0.2-0.1c1.2,0.3,2.3,0.5,3.2,0.8
		C56.6,64,57.4,64.3,58.1,64.6z"/>
	<path id="XMLID_97_" class="st0" d="M63.4,71.3c0.2-2.8,0.4-5.7,0.5-8.6c0.1-2.9,0.2-6.1,0.2-9.4c0-3.4-0.1-6.7-0.2-9.7
		c-0.1-3.1-0.3-6-0.5-9c0.3,0,0.7,0.1,1,0.1c0.4,0,0.8,0,1.3,0c1.4,0,2.5,0,3.3-0.1c0.8-0.1,1.2-0.1,1.2-0.1
		c-0.2,3.2-0.4,5.8-0.4,7.7c-0.1,1.9-0.1,3.3-0.1,4.1v0.7c2.5-4.5,7-6.7,13.5-6.7c4.9,0,8.4,1,10.5,3c2.1,2,3.2,5.2,3.2,9.7
		c0,1.1,0,2.3,0,3.4c0,1.1-0.1,2.2-0.1,3.2c0,1-0.1,1.9-0.1,2.7c0,0.8,0,1.5,0,1.9c0,1.3,0,2.5,0.1,3.7c0,1.1,0.1,2.2,0.2,3.2
		c0,0.1-0.1,0.2-0.2,0.2c-0.5,0-0.9,0.1-1.4,0.1c-0.5,0-1,0-1.5,0c-0.9,0-1.7,0-2.4-0.1c-0.7,0-1.3-0.1-1.8-0.1
		c-0.1,0-0.2-0.1-0.2-0.2c0.4-3.1,0.8-5.9,1-8.5c0.2-2.6,0.3-5.1,0.3-7.3c0-1.6-0.1-3.1-0.4-4.4c-0.2-1.3-0.7-2.4-1.3-3.3
		c-0.6-0.9-1.4-1.6-2.5-2.1c-1-0.5-2.4-0.7-4-0.7c-4.6,0-8,1.3-9.9,3.8c-2,2.6-3,6.6-3,12c0,1,0,2.4,0.1,4.2
		c0.1,1.7,0.2,3.8,0.4,6.3c0,0.1-0.1,0.2-0.2,0.2c-0.7,0.1-1.3,0.1-1.9,0.1c-0.6,0-1.2,0-1.8,0c-0.6,0-1.1,0-1.6,0
		C64.4,71.4,63.9,71.4,63.4,71.3z"/>
	<path id="XMLID_99_" class="st0" d="M110.1,40.2c-0.8,0.1-1.7,0.2-2.6,0.3c-0.9,0.1-1.8,0.1-2.8,0.1c-0.5,0-0.9,0-1.3,0
		c-0.4,0-0.8,0-1.2-0.1c-0.1,0-0.2-0.1-0.2-0.1c-0.1-0.5-0.1-1.1-0.2-1.7c0-0.7-0.1-1.4-0.1-2.2c0-0.2,0-0.5,0-0.7
		c0-0.2,0-0.5,0-0.8c2-0.3,3.9-0.5,5.5-0.5c1.1,0,2,0.1,2.8,0.2c0.1,0,0.1,0.1,0.1,0.2c0.1,0.6,0.2,1.1,0.2,1.6
		c0.1,0.5,0.1,1,0.1,1.5c0,0.5,0,1-0.1,1.3C110.3,39.6,110.2,39.9,110.1,40.2z M109.8,71.2c0,0.1-0.1,0.2-0.2,0.2
		c-1.4-0.1-2.6-0.1-3.8-0.1c-1.4,0-2.5,0.1-3.5,0.2c-0.1,0-0.2-0.1-0.2-0.2c1-3.9,1.4-8.4,1.4-13.8c0-2.1-0.1-4.3-0.2-6.6
		c-0.1-2.3-0.4-4.6-0.7-7.1c0.5,0,0.9,0.1,1.3,0.1c0.4,0,0.9,0,1.4,0c0.7,0,1.4,0,2,0c0.6,0,1.3-0.1,2-0.1c0.1,0,0.2,0.1,0.2,0.2
		c-0.2,1.8-0.3,3.7-0.4,5.6c-0.1,2-0.1,4.1-0.1,6.4c0,2.9,0.1,5.6,0.2,8.1C109.3,66.6,109.5,69,109.8,71.2z"/>
	<path id="XMLID_102_" class="st0" d="M116.4,79c-0.1,0-0.2-0.1-0.2-0.2c0.1-1.6,0.2-3.4,0.4-5.2c0.1-1.9,0.2-3.8,0.3-5.7
		c0.1-1.9,0.2-3.8,0.2-5.6c0-1.9,0.1-3.7,0.1-5.4c0-2.8-0.1-5.5-0.2-8.2c-0.1-2.6-0.3-5.1-0.4-7.6c0-0.1,0.1-0.2,0.2-0.2
		c0.6,0,1.5,0,2.4-0.1c1.1-0.1,2.3-0.2,3.7-0.3c0,0.2-0.1,0.6-0.2,1.2c-0.1,0.6-0.2,1.3-0.2,2.3c0,0.5,0.1,0.9,0.2,1.1
		c1.6-1.8,3.4-3.1,5.3-3.8c2-0.7,4.5-1.1,7.5-1.1c2.4,0,4.6,0.4,6.5,1.2c2,0.8,3.6,2,5,3.4c1.4,1.5,2.4,3.2,3.2,5.3
		c0.8,2,1.1,4.3,1.1,6.8c0,2.2-0.4,4.2-1.2,6c-0.8,1.8-1.9,3.4-3.4,4.6c-1.5,1.3-3.2,2.3-5.2,3c-2,0.7-4.3,1.1-6.8,1.1
		c-5.1,0-9.2-1.9-12.3-5.6c-0.1,0.7-0.2,1.4-0.2,2.2c0,0.7-0.1,1.5-0.1,2.3c0,1.5,0.1,2.9,0.2,4.4c0.1,1.4,0.3,2.7,0.5,3.9
		c0,0.1-0.1,0.2-0.2,0.2h-4.5C117.3,79,116.7,79,116.4,79z M122.7,56.2c0,1.7,0.3,3.2,0.8,4.6c0.6,1.4,1.4,2.6,2.4,3.5
		c1.1,1,2.3,1.7,3.9,2.3c1.5,0.6,3.2,0.8,5.1,0.8c6.8,0,10.3-4.1,10.3-12.3c0-3.4-1-6-2.9-7.8c-2-1.8-4.7-2.7-8.3-2.7
		c-4,0-6.9,0.9-8.6,2.7C123.6,49.2,122.7,52.1,122.7,56.2z"/>
	<path id="XMLID_105_" class="st0" d="M156.3,79c-0.1,0-0.2-0.1-0.2-0.2c0.1-1.6,0.2-3.4,0.4-5.2c0.1-1.9,0.2-3.8,0.3-5.7
		c0.1-1.9,0.2-3.8,0.2-5.6c0-1.9,0.1-3.7,0.1-5.4c0-2.8-0.1-5.5-0.2-8.2c-0.1-2.6-0.3-5.1-0.4-7.6c0-0.1,0.1-0.2,0.2-0.2
		c0.6,0,1.5,0,2.4-0.1c1.1-0.1,2.3-0.2,3.7-0.3c0,0.2-0.1,0.6-0.2,1.2c-0.1,0.6-0.2,1.3-0.2,2.3c0,0.5,0.1,0.9,0.2,1.1
		c1.6-1.8,3.4-3.1,5.3-3.8c2-0.7,4.5-1.1,7.5-1.1c2.4,0,4.6,0.4,6.5,1.2c2,0.8,3.6,2,5,3.4c1.4,1.5,2.4,3.2,3.2,5.3
		c0.8,2,1.1,4.3,1.1,6.8c0,2.2-0.4,4.2-1.2,6c-0.8,1.8-1.9,3.4-3.4,4.6c-1.5,1.3-3.2,2.3-5.2,3c-2,0.7-4.3,1.1-6.8,1.1
		c-5.1,0-9.2-1.9-12.3-5.6c-0.1,0.7-0.2,1.4-0.2,2.2c0,0.7-0.1,1.5-0.1,2.3c0,1.5,0.1,2.9,0.2,4.4c0.1,1.4,0.3,2.7,0.5,3.9
		c0,0.1-0.1,0.2-0.2,0.2h-4.5C157.2,79,156.6,79,156.3,79z M162.6,56.2c0,1.7,0.3,3.2,0.8,4.6c0.6,1.4,1.4,2.6,2.4,3.5
		c1.1,1,2.3,1.7,3.9,2.3c1.5,0.6,3.2,0.8,5.1,0.8c6.8,0,10.3-4.1,10.3-12.3c0-3.4-1-6-2.9-7.8c-2-1.8-4.7-2.7-8.3-2.7
		c-4,0-6.9,0.9-8.6,2.7C163.4,49.2,162.6,52.1,162.6,56.2z"/>
	<path id="XMLID_108_" class="st0" d="M228.6,66c0.1,0.1,0.1,0.2,0.1,0.3c-2.8,3.7-8,5.5-15.7,5.5c-6.1,0-10.5-1.3-13.3-3.8
		c-2.8-2.6-4.2-6.4-4.2-11.6c0-2.9,0.4-5.3,1.1-7.3c0.7-2,1.8-3.6,3.3-4.9s3.4-2.2,5.7-2.8c2.3-0.6,5-0.9,8.2-0.9
		c2.7,0,5,0.3,7.1,0.9c2,0.6,3.8,1.5,5.2,2.6c1.4,1.1,2.5,2.5,3.2,4.1c0.7,1.6,1.1,3.3,1.1,5.3c0,0.4,0,0.9-0.1,1.5
		c-0.1,0.5-0.1,0.9-0.2,1.4c0,0.1-0.1,0.1-0.2,0.1c-2.5-0.1-5-0.1-7.4-0.2c-2.5,0-4.9-0.1-7.3-0.1c-2.4,0-4.7,0-7,0.1
		c-2.3,0-4.5,0.1-6.7,0.2c0,0.2,0,0.4,0,0.5c0,0.2,0,0.3,0,0.5c0,3.6,1,6.2,2.9,7.7c2,1.6,5,2.4,9,2.4c2.7,0,4.9-0.4,6.6-1.1
		c1.6-0.7,2.7-1.6,3.2-2.7c0-0.1,0.1-0.1,0.2-0.1C225,64,226.7,64.8,228.6,66z M213.3,44.6c-3.8,0-6.6,0.6-8.3,1.9
		c-1.7,1.3-2.6,3.1-2.6,5.6c0,0.1,0.1,0.2,0.2,0.2c1.9,0.2,4.6,0.3,8.1,0.3c3.5,0,7.7-0.1,12.7-0.3c0.1,0,0.2-0.1,0.2-0.2l0,0
		c0-2.5-1.3-4.9-3.5-6.1C218.3,45,216.1,44.6,213.3,44.6z"/>
	<path id="XMLID_111_" class="st0" d="M270.3,71.1c0,0.1-0.1,0.2-0.2,0.2c-1,0.1-2.2,0.1-3.7,0.1c-0.6,0-1.3,0-2,0
		c-0.6,0-1.3,0-2-0.1c-0.1,0-0.2-0.1-0.2-0.2c0.5-1.9,0.8-3.8,1.1-5.7c0.2-2,0.4-4,0.4-5.9c0-2.9-0.1-5.3-0.4-7.2
		c-0.3-1.9-0.8-3.4-1.6-4.5c-0.8-1.1-1.9-1.9-3.2-2.3c-1.4-0.4-3.1-0.7-5.2-0.7c-2.3,0-4.1,0.3-5.6,1c-1.5,0.6-2.6,1.6-3.4,2.8
		c-0.8,1.3-1.4,2.8-1.7,4.7c-0.3,1.9-0.5,4-0.5,6.4c0,3.6,0.3,7.5,1,11.5c0,0.1-0.1,0.2-0.2,0.2c-0.8,0-1.5,0-2.2,0
		c-0.7,0-1.4,0-2,0s-1.2,0-1.8,0c-0.6,0-1,0-1.5,0.1c0.4-1.9,0.7-4.2,0.9-6.8c0.2-2.6,0.3-5.5,0.3-8.8c0-2.8-0.1-5.4-0.3-7.7
		c-0.2-2.3-0.4-4.5-0.7-6.7c0-0.1,0-0.2,0.1-0.2c1-0.3,2.2-0.5,3.4-0.5c0.5,0,0.9,0,1.4,0.1c0.4,0,0.9,0.1,1.4,0.2
		c0.1,0,0.2,0.1,0.1,0.2c-0.1,0.5-0.2,1.7-0.2,3.4c0,0.2,0.2,0.2,0.3,0.1c3.3-3.2,7.6-4.8,12.9-4.8c4.1,0,7.4,1,10,2.9
		c2.5,1.9,4,4.7,4.4,8.3c0,0,0,0,0,0v9.8c0,2.3,0.1,4.3,0.3,6C270,68.6,270.1,70,270.3,71.1z"/>
	<path id="XMLID_113_" class="st0" d="M276,71.3c0.2-2.8,0.4-5.7,0.5-8.6c0.1-2.9,0.2-6.1,0.2-9.4c0-3.4-0.1-6.7-0.2-9.7
		c-0.1-3.1-0.3-6-0.5-9c0.3,0,0.7,0.1,1,0.1c0.4,0,0.8,0,1.3,0c1.4,0,2.5,0,3.3-0.1c0.8-0.1,1.2-0.1,1.2-0.1
		c-0.2,3.2-0.4,5.8-0.4,7.7c-0.1,1.9-0.1,3.3-0.1,4.1v0.7c2.5-4.5,7-6.7,13.5-6.7c4.9,0,8.4,1,10.5,3c2.1,2,3.2,5.2,3.2,9.7
		c0,1.1,0,2.3,0,3.4c0,1.1-0.1,2.2-0.1,3.2c0,1-0.1,1.9-0.1,2.7c0,0.8,0,1.5,0,1.9c0,1.3,0,2.5,0.1,3.7c0,1.1,0.1,2.2,0.2,3.2
		c0,0.1-0.1,0.2-0.2,0.2c-0.5,0-0.9,0.1-1.4,0.1c-0.5,0-1,0-1.5,0c-0.9,0-1.7,0-2.4-0.1c-0.7,0-1.3-0.1-1.8-0.1
		c-0.1,0-0.2-0.1-0.2-0.2c0.4-3.1,0.8-5.9,1-8.5c0.2-2.6,0.3-5.1,0.3-7.3c0-1.6-0.1-3.1-0.4-4.4c-0.2-1.3-0.7-2.4-1.3-3.3
		c-0.6-0.9-1.4-1.6-2.5-2.1c-1-0.5-2.4-0.7-4-0.7c-4.6,0-8,1.3-9.9,3.8c-2,2.6-3,6.6-3,12c0,1,0,2.4,0.1,4.2
		c0.1,1.7,0.2,3.8,0.4,6.3c0,0.1-0.1,0.2-0.2,0.2c-0.7,0.1-1.3,0.1-1.9,0.1c-0.6,0-1.2,0-1.8,0c-0.6,0-1.1,0-1.6,0
		C277,71.4,276.5,71.4,276,71.3z"/>
	<path id="XMLID_115_" class="st0" d="M321.1,49.6c0,0.1-0.1,0.1-0.2,0.1c-1.1-0.4-2-0.7-2.9-1c-0.8-0.3-1.6-0.5-2.3-0.8
		c-0.1,0-0.1-0.2-0.1-0.3c2.5-4.7,8-7,16.4-7c5.7,0,9.9,1.1,12.4,3.3c2.5,2.2,3.8,5.7,3.8,10.5v7.4c0,2,0.1,3.8,0.3,5.3
		c0.2,1.5,0.5,3,0.8,4.3h-0.9c-0.7,0-1.5,0-2.4,0.1c-0.9,0-2,0.1-3.2,0.2c-0.1-0.2-0.2-0.5-0.3-0.9c-0.1-0.4-0.1-0.8-0.1-1.3
		c0-0.4,0-0.8-0.1-1.2c0-0.4,0-0.6,0-0.7c-2.4,2.9-6.8,4.3-13,4.3c-5.2,0-9.1-0.7-11.5-2.2c-2.5-1.5-3.7-3.9-3.7-7.1
		c0-3,1.4-5.3,4.2-6.9c2.8-1.6,6.8-2.4,12.1-2.4c2.9,0,5.3,0.3,7.4,0.9c1.8,0.5,3.3,1.2,4.2,1.9c0.1,0.1,0.3,0,0.3-0.1
		c0-2.2-0.2-4-0.5-5.4c-0.3-1.5-0.9-2.6-1.8-3.4c-0.8-0.8-1.9-1.3-3.3-1.6c-1.4-0.3-3-0.4-5.1-0.4c-1.4,0-2.7,0.1-3.7,0.3
		c-1,0.2-2,0.5-2.8,0.9c-0.8,0.4-1.5,0.9-2.2,1.5C322.3,48,321.7,48.7,321.1,49.6z M319.8,62.6C319.8,62.6,319.8,62.6,319.8,62.6
		c0.5,2,1.6,3.4,3.4,4.1c1.8,0.7,4,1.1,6.7,1.1c1.5,0,3-0.1,4.5-0.3c1.5-0.2,2.8-0.5,4-1c1.2-0.4,2.2-1,2.9-1.7
		c0.7-0.7,1.1-1.5,1.1-2.5c0-1-0.4-1.9-1.3-2.5c-0.8-0.7-1.8-1.2-3-1.6c-1.2-0.4-2.4-0.7-3.7-0.8c-1.3-0.2-2.4-0.2-3.4-0.2
		c-1.6,0-3,0.1-4.3,0.2c-1.3,0.1-2.5,0.4-3.4,0.8c-1,0.4-1.8,0.9-2.4,1.7C320.2,60.5,319.9,61.4,319.8,62.6z"/>
	<path id="XMLID_118_" class="st0" d="M381.1,71.3c0.4-1.7,0.6-3.3,0.8-5c0.2-1.7,0.3-3.4,0.3-5.2c0-2.4-0.1-4.6-0.4-6.6
		c-0.3-2-0.7-3.8-1.2-5.4c-0.8-2.4-3.6-3.6-8.6-3.6c-2.3,0-4.1,0.3-5.5,1c-1.4,0.7-2.5,1.6-3.3,2.7c-0.8,1.2-1.4,2.5-1.7,4.1
		c-0.3,1.6-0.4,3.3-0.4,5.2c0,1.3,0.1,3,0.3,5c0.2,2,0.5,4.5,1,7.4c0,0.1-0.1,0.2-0.2,0.2c-0.6,0.1-1.1,0.1-1.7,0.1
		c-0.6,0-1.2,0.1-1.8,0.1c-0.6,0-1.2,0-1.8-0.1c-0.5,0-1-0.1-1.4-0.1c-0.1,0-0.2-0.1-0.1-0.2c0.2-1.6,0.4-3.3,0.6-5.1
		c0.2-1.9,0.2-4,0.2-6.3c0-2.4-0.1-5.2-0.3-8.2c-0.2-3-0.4-6.3-0.8-10c0-0.1,0.1-0.2,0.2-0.2c0.9,0.1,1.8,0.1,2.8,0.1
		c0.5,0,1.1,0,1.6-0.1c0.5-0.1,1.1-0.1,1.7-0.2c-0.1,0.5-0.3,0.9-0.4,1.4c-0.1,0.4-0.2,0.9-0.2,1.4c0,0.4,0.1,0.7,0.2,1.1
		c0.1,0.4,0.2,0.7,0.3,1.1c3.5-3.7,7.7-5.6,12.6-5.6c6.2,0,10.2,2,12.1,6c0.1,0.1,0.2,0.1,0.3,0c3.4-4.1,8.3-6.1,14.6-6.1
		c2.7,0,5,0.3,6.8,1c1.8,0.6,3.2,1.6,4.2,3c1.1,1.3,1.8,3.1,2.2,5.1c0.4,2.1,0.7,4.6,0.7,7.4c0,3.5,0.2,6.4,0.3,8.8
		c0.2,2.3,0.4,4,0.6,5.3c0,0.1,0,0.2-0.1,0.2c-1.3,0.2-2.6,0.3-4,0.3c-0.6,0-1.2,0-1.9-0.1c-0.5,0-1.1-0.1-1.7-0.1
		c-0.1,0-0.2-0.1-0.2-0.2c0.3-1.8,0.5-3.7,0.7-5.7c0.2-2,0.2-4.1,0.2-6.3c0-2.6-0.1-4.7-0.3-6.5c-0.2-1.7-0.5-3-1-3.8
		c-0.6-1-1.7-1.9-3.3-2.6c-1.6-0.7-3.5-1.1-5.6-1.1c-2,0-3.7,0.2-5,0.6c-1.4,0.4-2.5,1-3.4,1.9c-0.9,0.9-1.6,2-2,3.5
		c-0.4,1.4-0.6,3.2-0.6,5.3c0,1.4,0.1,3.2,0.4,5.6c0.2,2.3,0.6,5.3,1.2,8.9c0,0.1,0,0.2-0.1,0.2c-0.4,0.1-0.9,0.2-1.6,0.2
		c-0.8,0.1-1.9,0.1-3.1,0.1c-0.6,0-1.2,0-1.8-0.1C381.9,71.4,381.4,71.4,381.1,71.3z"/>
	<path id="XMLID_120_" class="st0" d="M101.6,98.8c-1.1,0.4-2.2,0.8-3.3,1c-1.1,0.3-2.1,0.5-3.1,0.6c-0.9-1.2-2.3-2.1-4.2-2.8
		c-1.9-0.7-4-1-6.3-1c-5.3,0-9.1,1.1-11.4,3.3c-2.3,2.2-3.4,5.5-3.4,10.1c0,8.3,5,12.5,14.9,12.5c4.2,0,7.1-0.6,8.9-1.8
		c1.8-1.2,2.7-3.2,2.7-6v-0.7c0-0.5-0.2-0.8-0.7-0.9c-0.5-0.1-1.2-0.2-2.2-0.2c-0.7,0-1.6,0-2.6,0c-1,0-2,0-3,0.1
		c-1,0-1.9,0-2.8,0.1c-0.9,0-1.5,0-1.9,0c0-0.3,0.1-0.6,0.1-0.9c0-0.3,0-0.7,0-1.2c0-0.4,0-0.8,0-1.1c0-0.4-0.1-0.8-0.1-1.1
		c1.8,0.1,3.5,0.1,5.2,0.2s3.3,0.1,4.8,0.1c1.6,0,3.1,0,4.5-0.1c1.5-0.1,2.9-0.1,4.2-0.2c0.2,1,0.4,2.1,0.5,3.1
		c0.1,1.1,0.2,2,0.2,2.9c0,7.9-6.1,11.9-18.2,11.9c-6.8,0-12-1.4-15.6-4.2c-3.6-2.8-5.3-6.9-5.3-12.3c0-3.1,0.4-5.8,1.2-8.1
		c0.8-2.3,2.1-4.1,3.8-5.5c1.7-1.4,3.9-2.5,6.7-3.2c2.7-0.7,6-1,9.9-1C93.7,92.3,99.2,94.4,101.6,98.8z"/>
	<path id="XMLID_122_" class="st0" d="M115.7,106.2c-1.2-0.3-2.3-0.6-3.3-0.9c-1-0.3-1.9-0.5-2.7-0.8c2.7-4.4,8.6-6.6,17.9-6.6
		c6.2,0,10.7,1,13.4,3c2.8,2,4.1,5.2,4.1,9.6v6.8c0,1.8,0.1,3.5,0.3,4.9c0.2,1.4,0.5,2.7,0.8,3.9h-1c-0.7,0-1.6,0-2.6,0.1
		s-2.2,0.1-3.4,0.2c-0.1-0.2-0.3-0.4-0.3-0.8c-0.1-0.4-0.1-0.8-0.1-1.2c0-0.4,0-0.8-0.1-1.1c0-0.3,0-0.6,0-0.7
		c-2.6,2.6-7.4,4-14.1,4c-5.7,0-9.8-0.7-12.5-2.1c-2.7-1.4-4-3.6-4-6.5c0-2.7,1.5-4.9,4.6-6.4c3.1-1.5,7.4-2.2,13.1-2.2
		c3.1,0,5.8,0.3,8,0.8c2.2,0.5,3.8,1.2,4.9,1.9c0-2.2-0.2-4-0.5-5.3c-0.4-1.4-1-2.4-1.9-3.1c-0.9-0.7-2.1-1.2-3.6-1.5
		c-1.5-0.3-3.3-0.4-5.5-0.4c-1.6,0-2.9,0.1-4,0.3c-1.1,0.2-2.1,0.4-3,0.8c-0.9,0.4-1.7,0.8-2.3,1.4
		C117,104.7,116.3,105.3,115.7,106.2z M114.3,118c0.5,1.8,1.8,3.1,3.7,3.7c1.9,0.6,4.3,1,7.3,1c1.6,0,3.2-0.1,4.8-0.3
		c1.6-0.2,3.1-0.5,4.4-0.9c1.3-0.4,2.3-0.9,3.1-1.6c0.8-0.6,1.2-1.4,1.2-2.3c0-0.9-0.5-1.7-1.4-2.3c-0.9-0.6-2-1.1-3.3-1.5
		c-1.3-0.4-2.6-0.6-4-0.8c-1.4-0.2-2.6-0.2-3.7-0.2c-1.7,0-3.3,0.1-4.7,0.2c-1.4,0.1-2.7,0.4-3.7,0.7c-1.1,0.4-1.9,0.9-2.6,1.6
		C114.7,116.1,114.4,117,114.3,118z"/>
	<path id="XMLID_125_" class="st0" d="M168.6,122.9c2.6,0,4.5-0.8,5.8-2.5c1.2,0.2,2.3,0.5,3.2,0.7c0.9,0.3,1.7,0.6,2.4,1
		c-1,1.4-2.5,2.5-4.7,3.3c-2.2,0.8-4.5,1.2-7.1,1.2c-4.6,0-7.9-0.7-9.9-2.1c-2-1.4-3-3.6-3-6.5c0-1.3,0-2.6,0.1-3.8
		c0-1.3,0.1-2.5,0.1-3.7c0-1.8,0-3.5-0.1-5s-0.2-2.8-0.3-3.9c-0.2,0-0.6-0.1-1-0.1c-0.4,0-0.9,0-1.5,0c-0.6,0-1.2,0-1.8,0.1
		c-0.6,0-1.3,0.1-2.1,0.2c-0.1-0.2-0.2-0.6-0.3-1c0-0.4-0.1-0.9-0.1-1.5v-1.3c0.6,0,1.2,0.1,1.7,0.1c0.5,0,1,0.1,1.5,0.1
		c0.8,0,1.6,0,2.2-0.1c0.7-0.1,1.2-0.1,1.6-0.2v-1.2c0-0.6,0-1.1-0.1-1.7c-0.1-0.6-0.3-1.4-0.5-2.5c0.6,0,1.2,0.1,1.8,0.1
		c0.6,0,1.1,0.1,1.7,0.1c1,0,1.9,0,2.7-0.1c0.8-0.1,1.6-0.1,2.2-0.2c-0.2,1.1-0.4,2-0.4,2.7c0,0.8-0.1,1.7-0.2,2.9
		c1,0,2,0.1,2.9,0.1c0.9,0,1.7,0.1,2.5,0.1c1.5,0,3.1-0.1,4.9-0.2c1.8-0.1,3.7-0.2,5.8-0.4c-0.3,0.7-0.5,1.5-0.5,2.4
		c0,0.3,0,0.6,0,0.9c0,0.3,0.1,0.6,0.1,0.9c-1.6-0.1-3.1-0.1-4.7-0.2c-1.6-0.1-3.2-0.1-4.8-0.1c-1,0-2,0-3,0c-1,0-1.9,0-3,0.1
		c-0.3,1.5-0.5,3.2-0.7,4.9c-0.2,1.7-0.3,3.5-0.3,5.2c0,2.4,0.1,4.4,0.3,5.8c0.2,1.5,0.6,2.6,1.1,3.4c0.5,0.8,1.3,1.3,2.2,1.6
		C166.1,122.7,167.2,122.9,168.6,122.9z"/>
	<path id="XMLID_127_" class="st0" d="M220.4,121.2c-3,3.5-8.7,5.2-17.1,5.2c-6.6,0-11.4-1.2-14.4-3.5c-3-2.4-4.5-5.9-4.5-10.7
		c0-2.6,0.4-4.9,1.2-6.7c0.8-1.8,2-3.3,3.6-4.5s3.7-2,6.2-2.5c2.5-0.5,5.4-0.8,8.9-0.8c2.9,0,5.4,0.3,7.7,0.8
		c2.2,0.6,4.1,1.4,5.6,2.4c1.5,1,2.7,2.3,3.4,3.7c0.8,1.5,1.2,3.1,1.2,4.8c0,0.4,0,0.9-0.1,1.4c-0.1,0.5-0.2,1-0.3,1.4
		c-2.8-0.1-5.5-0.1-8.2-0.2c-2.7,0-5.3-0.1-7.9-0.1c-2.6,0-5.1,0-7.5,0.1c-2.4,0-4.9,0.1-7.3,0.2c0,0.2,0,0.3,0,0.5
		c0,0.2,0,0.3,0,0.5c0,3.3,1.1,5.7,3.2,7.1c2.1,1.5,5.4,2.2,9.8,2.2c2.9,0,5.3-0.3,7.2-1c1.9-0.7,3-1.5,3.5-2.6
		C216.2,119.3,218.2,120,220.4,121.2z M203.6,101.4c-4.2,0-7.2,0.6-9,1.8c-1.9,1.2-2.8,3-2.8,5.3c2.1,0.2,5,0.3,8.9,0.3
		c3.8,0,8.5-0.1,14-0.3V108c0-2-1-3.6-2.9-4.8C209.8,102,207.1,101.4,203.6,101.4z"/>
	<path id="XMLID_130_" class="st0" d="M237.8,126.1c-1.7-4.4-3.6-9-5.9-13.5c-2.2-4.6-4.8-9.5-7.5-14.9c0.8-0.1,1.6-0.1,2.4-0.2
		c0.8,0,1.5-0.1,2.3-0.1c0.8,0,1.5,0,2.2,0.1c0.7,0,1.4,0.1,2.1,0.2c1.2,4.9,2.6,9.2,4,12.9c1.5,3.7,3.1,7,4.9,10
		c1.9-3,3.7-6.4,5.4-10.1c1.7-3.7,3.5-8,5.3-12.8c1.6,0.1,3.3,0.2,5,0.2c0.7,0,1.3,0,2,0c0.6,0,1.3,0,2.1-0.1
		c0.9,3.4,2.1,6.9,3.7,10.7c1.5,3.7,3.4,7.7,5.8,12c2.3-4.2,4.3-8.2,6-11.9c1.6-3.7,2.9-7.4,3.8-11.1c3.6,0,6.2,0.1,7.6,0.3
		c-2.3,3.6-4.7,7.6-7.1,12.2c-2.4,4.6-4.9,9.9-7.5,16c-0.7,0.1-1.4,0.1-2.1,0.2c-0.7,0-1.5,0.1-2.3,0.1c-1.3,0-2.6-0.1-4-0.2
		c-1.2-4.1-2.6-8.1-4.1-11.8c-1.5-3.8-3.2-7.6-5.2-11.4c-1.3,2.4-2.4,4.5-3.4,6.2c-0.9,1.7-1.7,3.3-2.4,4.6
		c-0.7,1.3-1.3,2.5-1.7,3.5c-0.5,1-0.9,2-1.2,2.9c-0.4,0.9-0.7,1.9-1.1,2.9c-0.3,1-0.7,2.1-1.1,3.4c-2.6-0.1-4.6-0.1-5.9-0.2
		C238.5,126.1,237.8,126.1,237.8,126.1z"/>
	<path id="XMLID_132_" class="st0" d="M298.5,106.2c-1.2-0.3-2.3-0.6-3.3-0.9c-1-0.3-1.9-0.5-2.7-0.8c2.7-4.4,8.6-6.6,17.9-6.6
		c6.2,0,10.7,1,13.4,3c2.8,2,4.1,5.2,4.1,9.6v6.8c0,1.8,0.1,3.5,0.3,4.9s0.5,2.7,0.8,3.9h-1c-0.7,0-1.6,0-2.6,0.1s-2.2,0.1-3.4,0.2
		c-0.1-0.2-0.3-0.4-0.3-0.8c-0.1-0.4-0.1-0.8-0.1-1.2c0-0.4,0-0.8-0.1-1.1c0-0.3,0-0.6,0-0.7c-2.6,2.6-7.4,4-14.1,4
		c-5.7,0-9.8-0.7-12.5-2.1c-2.7-1.4-4-3.6-4-6.5c0-2.7,1.5-4.9,4.6-6.4c3.1-1.5,7.4-2.2,13.1-2.2c3.1,0,5.8,0.3,8,0.8
		c2.2,0.5,3.8,1.2,4.9,1.9c0-2.2-0.2-4-0.5-5.3c-0.4-1.4-1-2.4-1.9-3.1c-0.9-0.7-2.1-1.2-3.6-1.5c-1.5-0.3-3.3-0.4-5.5-0.4
		c-1.6,0-2.9,0.1-4,0.3c-1.1,0.2-2.1,0.4-3,0.8c-0.9,0.4-1.7,0.8-2.3,1.4C299.8,104.7,299.2,105.3,298.5,106.2z M297.1,118
		c0.5,1.8,1.8,3.1,3.7,3.7c1.9,0.6,4.3,1,7.3,1c1.6,0,3.2-0.1,4.8-0.3c1.6-0.2,3.1-0.5,4.4-0.9s2.3-0.9,3.1-1.6
		c0.8-0.6,1.2-1.4,1.2-2.3c0-0.9-0.5-1.7-1.4-2.3c-0.9-0.6-2-1.1-3.3-1.5c-1.3-0.4-2.6-0.6-4-0.8c-1.4-0.2-2.6-0.2-3.7-0.2
		c-1.7,0-3.3,0.1-4.7,0.2c-1.4,0.1-2.7,0.4-3.7,0.7c-1.1,0.4-1.9,0.9-2.6,1.6C297.6,116.1,297.2,117,297.1,118z"/>
	<path id="XMLID_135_" class="st0" d="M355.3,129.6c1.8,0,3.4-0.3,4.8-1c1.4-0.6,2.6-1.5,3.6-2.4c1-1,1.7-2,2.3-3.2
		c0.5-1.2,0.8-2.3,0.8-3.4c0-0.2,0-0.3,0-0.5c0-0.1,0-0.3,0-0.4c-3.8,3.1-8.4,4.6-13.6,4.6c-2.6,0-5-0.2-7.2-0.5
		c-2.2-0.3-4.1-1-5.8-2c-1.6-1-2.9-2.4-3.8-4.3c-0.9-1.9-1.4-4.3-1.4-7.4c0-0.2,0-0.7,0-1.5c0-0.7,0.1-1.6,0.1-2.5
		c0-0.9,0.1-1.9,0.1-2.9c0-1,0-1.9,0-2.6c0-0.4,0-0.7,0-1c0-0.3,0-0.5,0-0.7c1.5,0.1,2.8,0.2,4.1,0.2c0.5,0,1.1,0,1.6,0
		c0.5,0,1.1,0,1.6-0.1c-0.3,1.7-0.6,3.5-0.8,5.4c-0.2,1.9-0.3,3.5-0.3,5c0,2.4,0.2,4.3,0.7,5.7c0.5,1.4,1.3,2.6,2.3,3.4
		c1.1,0.8,2.4,1.3,4,1.6c1.6,0.3,3.5,0.4,5.7,0.4c2,0,3.8-0.2,5.4-0.5c1.6-0.3,2.9-1,4-1.9c1.1-0.9,1.9-2.1,2.5-3.6
		c0.6-1.5,0.9-3.5,0.9-5.9c0-1.4-0.1-3-0.3-4.6c-0.2-1.6-0.5-3.2-0.9-4.7c2.1-0.1,3.8-0.2,5.1-0.2c1.6,0,2.4,0,2.4,0.1
		c0,0.5,0,1.4-0.1,2.7c-0.1,1.2-0.1,2.5-0.2,3.9c-0.1,1.4-0.1,2.7-0.2,3.9c0,1.2-0.1,2.1-0.1,2.6c0,0.5,0,1.1,0,1.6c0,0.5,0,1,0,1.6
		c0,2.8-0.2,5.4-0.7,7.7c-0.4,2.3-1.3,4.3-2.6,6c-1.3,1.7-3.2,2.9-5.7,3.8c-2.5,0.9-5.7,1.3-9.8,1.3c-3.9,0-7.3-0.4-10.2-1.2
		c-2.9-0.8-5.2-2.1-7-3.8l2.6-1.2c0.5-0.2,1.1-0.4,1.8-0.5c0.7-0.1,1.3-0.3,2-0.6c1.3,1.3,2.9,2.2,4.8,2.7c2,0.5,4.2,0.9,6.7,1
		H355.3z"/>
	<path id="XMLID_137_" class="st0" d="M437.6,120.1c-2.6,4-7.8,6.1-15.8,6.1c-3.6,0-6.5-0.4-8.9-1.1c-2.4-0.7-4.3-1.7-5.8-3.1
		c-1.4-1.3-2.5-3-3.1-5c-0.6-2-1-4.2-1-6.6c0-2.6,0.3-4.8,1-6.8c0.7-1.9,1.8-3.6,3.3-4.9c1.5-1.3,3.6-2.3,6-2.9c2.5-0.7,5.6-1,9.2-1
		c3.6,0,6.6,0.5,9,1.4c2.3,0.9,4.2,2.5,5.7,4.7c-0.8,0.4-1.7,0.7-2.6,1c-0.9,0.3-1.8,0.5-2.7,0.6c-0.9-1.3-2.1-2.2-3.7-2.7
		c-1.6-0.5-3.6-0.7-6-0.7c-2.5,0-4.6,0.2-6.3,0.7c-1.7,0.5-3.1,1.2-4.1,2.1c-1.1,0.9-1.8,2-2.3,3.4c-0.5,1.3-0.7,2.9-0.7,4.7
		c0,4.3,1,7.4,3,9.3c2,2,5.1,2.9,9.2,2.9c2.8,0,5.1-0.3,6.8-0.8c1.8-0.6,3.1-1.5,4-2.7c1.2,0.2,2.3,0.4,3.2,0.6
		C436,119.5,436.9,119.8,437.6,120.1z"/>
	<path id="XMLID_139_" class="st0" d="M449.5,125.6c-0.6,0-1.2,0.1-1.7,0.1c-0.5,0-1.1,0-1.7,0c-0.6,0-1.2,0-1.9,0
		c-0.6,0-1.3,0-1.9-0.1c0.4-2.1,0.7-4.5,0.9-7.1c0.2-2.6,0.3-5.5,0.3-8.8c0-2.5-0.1-4.9-0.2-7.4c-0.2-2.5-0.3-5-0.6-7.5
		c0.1,0,0.2,0,0.3,0c0.1,0,0.3,0,0.5,0c0.5,0,1.2,0,2.2,0c1,0,2.2-0.1,3.6-0.1c-0.3,2.3-0.5,4.6-0.7,7c-0.1,2.4-0.2,5.1-0.2,7.9
		C448.5,116,448.8,121.3,449.5,125.6z"/>
	<path id="XMLID_141_" class="st0" d="M488.1,125.6c-0.2,0-0.4-0.1-0.6-0.1c-0.2,0-0.5,0-0.9,0c-0.4,0-1,0-1.7,0c-0.7,0-1.2,0-1.7,0
		c-0.6,0-1,0-1.2,0c0-0.2,0.1-0.3,0.1-0.5c0-0.2,0-0.4,0-0.6c0-0.4,0-0.8-0.1-1.2c-0.1-0.4-0.1-0.9-0.2-1.4
		c-0.5,0.6-1.2,1.1-2.1,1.6c-0.9,0.5-2,0.9-3.1,1.3c-1.1,0.4-2.3,0.6-3.6,0.9c-1.2,0.2-2.4,0.3-3.6,0.3c-3.5,0-6.2-0.4-8.1-1.2
		c-1.9-0.8-3.4-1.8-4.3-3c-0.9-1.3-1.5-2.7-1.7-4.3c-0.2-1.6-0.3-3.2-0.3-4.8c0-0.5,0-1.2,0.1-2.1c0-0.9,0.1-1.8,0.2-2.7
		c0.1-0.9,0.1-1.8,0.2-2.6c0-0.8,0.1-1.4,0.1-1.7c0-0.7,0-1.4-0.1-1.9c-0.1-0.6-0.1-1.1-0.2-1.6c0.9-0.1,1.9-0.1,3-0.1
		c0.6,0,1.2,0,1.9,0c0.7,0,1.4,0.1,2.1,0.1c-0.5,3.5-0.9,6.2-1.2,8.1c-0.3,1.9-0.4,3.2-0.4,3.8c0,1.5,0.1,2.9,0.3,4.2
		c0.2,1.3,0.7,2.4,1.4,3.4c0.7,1,1.8,1.7,3.3,2.2c1.4,0.5,3.3,0.8,5.7,0.8c2,0,3.9-0.4,5.8-1.1c1.1-0.4,2-0.9,2.7-1.4
		c0.7-0.5,1.2-1.2,1.6-2c0.4-0.8,0.7-1.7,0.8-2.8c0.2-1.1,0.2-2.4,0.2-4c0-0.3-0.1-1.4-0.2-3.3c-0.1-1.9-0.4-4.6-0.7-8.1
		c0.5,0,1.1,0,1.6,0c0.6,0,1.1,0,1.6,0c0.6,0,1.2,0,1.7,0c0.5,0,1,0,1.6,0c-0.2,2.4-0.4,4.8-0.5,7.2c-0.1,2.3-0.2,4.7-0.2,7
		c0,1.9,0,3.9,0.1,5.8C487.8,121.6,487.9,123.6,488.1,125.6z"/>
	<path id="XMLID_143_" class="st0" d="M513.1,99.6c2.2,0,4.3,0.3,6.2,0.9c1.9,0.6,3.6,1.4,5,2.5c1.4,1.1,2.5,2.3,3.3,3.8
		c0.8,1.5,1.2,3.2,1.2,5c0,4.5-1.4,8-4.3,10.4c-2.9,2.5-6.9,3.7-11.9,3.7c-5.2,0-9.4-1.5-12.6-4.4c-0.2,0.4-0.4,0.8-0.5,1.2
		c-0.1,0.4-0.1,0.7-0.1,1.1c0,0.6,0.1,1.2,0.3,1.8c-2.4,0-4.3,0-5.7,0.1c0.4-2.3,0.6-4.8,0.9-7.3c0.2-2.5,0.3-5.2,0.3-8.2
		c0-2.5-0.1-5.1-0.2-7.6c-0.1-2.6-0.4-5.2-0.7-7.8c0.5,0.1,1,0.1,1.4,0.1s1,0,1.5,0c1.1,0,2.3,0,3.7-0.1c-0.2,2.3-0.4,4.1-0.4,5.6
		c-0.1,1.5-0.1,2.6-0.1,3.4v0.7C504.2,101.3,508.4,99.6,513.1,99.6z M512.1,103.6c-3.9,0-6.8,0.8-8.7,2.5c-2,1.7-2.9,4-2.9,7.2
		c0,1.4,0.3,2.7,0.8,3.8c0.5,1.1,1.3,2.1,2.4,2.9c1.1,0.8,2.3,1.4,3.8,1.9c1.5,0.4,3.1,0.6,5,0.6c6.8,0,10.3-3.4,10.3-10.1
		C522.6,106.5,519.1,103.6,512.1,103.6z"/>
</g>
</svg>
